<svg width="117" height="44" viewBox="0 0 117 44" fill="none" xmlns="http://www.w3.org/2000/svg">
<path d="M21.6959 15.9694C23.2756 15.9694 24.5563 14.6737 24.5563 13.0754C24.5563 11.4771 23.2756 10.1814 21.6959 10.1814C20.1161 10.1814 18.8354 11.4771 18.8354 13.0754C18.8354 14.6737 20.1161 15.9694 21.6959 15.9694Z" fill="#1B15EA"/>
<path d="M9.45459 17.399V13.397H13.5259V17.399H24.065V20.7592H13.5259V28.5887C13.5259 29.1336 13.656 29.5281 13.9162 29.7722C14.1764 30.0163 14.6144 30.138 15.2302 30.1373H17.1069V33.5848H14.5653C11.1582 33.5848 9.45459 31.9098 9.45459 28.5599V17.399Z" fill="#1B15EA"/>
<path d="M24.0658 17.3987H20.0229V33.5834H24.0658V17.3987Z" fill="#1B15EA"/>
<path d="M52.667 18.9911C53.8691 20.2087 54.4708 21.9082 54.4722 24.0894V33.5846H50.4293V24.644C50.4293 23.3781 50.1116 22.4091 49.4762 21.7372C48.8408 21.0652 47.9746 20.7292 46.8777 20.7292C45.7808 20.7292 44.9097 21.0652 44.2645 21.7372C43.6193 22.4091 43.2967 23.3781 43.2967 24.644V33.5846H39.2538V24.644C39.2538 23.3781 38.9361 22.4091 38.3006 21.7372C37.6652 21.0652 36.7991 20.7292 35.7022 20.7292C34.5856 20.7292 33.7051 21.0652 33.0606 21.7372C32.416 22.4091 32.0934 23.3781 32.0927 24.644V33.5846H28.0498V17.3988H32.0927V19.3562C32.6244 18.6653 33.313 18.1144 34.0999 17.7501C34.9455 17.3544 35.8678 17.1548 36.7994 17.1657C38.0499 17.1657 39.1664 17.4336 40.149 17.9693C41.1157 18.4902 41.9093 19.2876 42.4308 20.262C42.9646 19.3135 43.7494 18.5347 44.6969 18.013C45.6782 17.449 46.7886 17.1554 47.9171 17.1615C49.8802 17.1643 51.4634 17.7742 52.667 18.9911Z" fill="#1B15EA"/>
<path d="M59.6263 32.649C58.5182 31.8684 57.8971 30.7583 57.7632 29.3186H59.0919C59.1276 29.808 59.2721 30.2828 59.5145 30.7078C59.757 31.1328 60.0911 31.4969 60.4921 31.773C61.3295 32.3762 62.4702 32.6781 63.9143 32.6788C65.1066 32.6788 66.0534 32.3719 66.7548 31.7581C67.4561 31.1443 67.8068 30.3897 67.8068 29.4942C67.8068 28.8705 67.6192 28.3592 67.2439 27.9605C66.8518 27.5506 66.3731 27.2359 65.8437 27.0398C65.0953 26.7672 64.3337 26.5331 63.5619 26.3384C62.6094 26.0947 61.6738 25.7875 60.7614 25.4188C60.0555 25.1216 59.4313 24.6555 58.9425 24.0606C58.4417 23.4575 58.1914 22.6489 58.1914 21.6349C58.1913 20.8946 58.4238 20.1734 58.8552 19.5754C59.3303 18.9167 59.9701 18.3976 60.7088 18.0714C61.553 17.6894 62.4699 17.4997 63.3946 17.5158C65.0301 17.5158 66.3536 17.9299 67.3649 18.758C68.3763 19.586 68.9209 20.7302 68.9987 22.1905H67.6974C67.6398 21.1382 67.2355 20.2811 66.4844 19.619C65.7332 18.957 64.6935 18.626 63.3652 18.626C62.2486 18.626 61.3246 18.9183 60.5931 19.503C59.8616 20.0877 59.4959 20.7973 59.4959 21.6317C59.4959 22.3725 59.7027 22.9714 60.1165 23.4284C60.5404 23.8932 61.0641 24.2534 61.6472 24.481C62.4348 24.7848 63.2383 25.0441 64.0542 25.258C64.9533 25.4848 65.8362 25.7728 66.6969 26.1202C67.3458 26.3914 67.9238 26.8111 68.3854 27.3463C68.8483 27.8828 69.0794 28.5987 69.0787 29.4942C69.0862 30.2854 68.8546 31.0601 68.4148 31.7145C67.9517 32.3933 67.312 32.9293 66.5664 33.2631C65.7317 33.6423 64.825 33.8316 63.9101 33.8177C62.1603 33.8177 60.7323 33.4281 59.6263 32.649Z" fill="#1B15EA"/>
<path d="M75.9841 32.8248C74.8124 32.1657 73.8546 31.1771 73.2267 29.9787C72.5619 28.7419 72.2298 27.2957 72.2305 25.6403C72.2305 24.004 72.5671 22.5675 73.2404 21.3307C73.8772 20.1321 74.8457 19.1475 76.0272 18.4973C77.2472 17.8357 78.6134 17.4987 79.9975 17.5181C81.4612 17.5181 82.7801 17.8445 83.9541 18.4973C85.1243 19.1459 86.0825 20.1253 86.7115 21.3158C87.3749 22.5434 87.707 23.9849 87.7077 25.6403C87.7084 27.2957 87.3714 28.7419 86.6967 29.9787C86.0584 31.1795 85.0911 32.1685 83.911 32.8269C82.6932 33.4966 81.3256 33.8379 79.9396 33.8178C78.4773 33.8178 77.1588 33.4868 75.9841 32.8248ZM83.1315 31.8754C84.1375 31.3456 84.9667 30.5274 85.5153 29.5231C86.1115 28.4715 86.4099 27.1765 86.4106 25.6382C86.4106 24.1183 86.1122 22.8329 85.5153 21.782C84.9699 20.7808 84.1467 19.9631 83.1472 19.4297C82.1666 18.914 81.0764 18.6484 79.9712 18.6559C78.8703 18.6471 77.7841 18.9129 76.8088 19.4297C75.8368 19.9456 75.0523 20.7297 74.4555 21.782C73.8586 22.8343 73.5602 24.1197 73.5602 25.6382C73.5602 27.1758 73.8541 28.4708 74.4418 29.5231C75.0295 30.5754 75.8101 31.3595 76.7836 31.8754C77.757 32.3912 78.8408 32.6569 79.9396 32.6491C81.0497 32.6556 82.1448 32.3901 83.1315 31.8754Z" fill="#1B15EA"/>
<path d="M92.27 17.7203V16.6102C92.27 14.9554 92.6838 13.7236 93.5114 12.9147C94.339 12.1058 95.6961 11.7017 97.5827 11.7024V12.8732C96.0818 12.8732 95.0375 13.1652 94.4498 13.7492C93.8621 14.3331 93.5686 15.2875 93.5693 16.6123V17.7203H97.6406V18.8911H93.5693V33.5847H92.27V17.7256V17.7203Z" fill="#1B15EA"/>
<path d="M101.596 13.6938H102.895V17.7203H107.545V18.8603H102.895V29.3485C102.895 30.5172 103.106 31.3204 103.527 31.7583C103.947 32.1961 104.698 32.4153 105.779 32.416H107.541V33.5868H105.581C104.214 33.5868 103.208 33.2604 102.564 32.6076C101.92 31.9548 101.598 30.8692 101.596 29.3507V18.8603" fill="#1B15EA"/>
<path d="M20.023 17.3987H19.4023V20.7589H20.023V17.3987Z" fill="url(#paint0_linear_280_775)"/>
<defs>
<linearGradient id="paint0_linear_280_775" x1="19.4023" y1="19.0793" x2="20.023" y2="19.0793" gradientUnits="userSpaceOnUse">
<stop stop-color="#020E7F"/>
<stop offset="0.49" stop-color="#020D7D"/>
<stop offset="0.68" stop-color="#020C76"/>
<stop offset="0.82" stop-color="#02086A"/>
<stop offset="0.94" stop-color="#020359"/>
<stop offset="1" stop-color="#02004C"/>
</linearGradient>
</defs>
</svg>
